Coordinates
version=1
nRows=16
nColumns=40
inDegrees=yes
endheader
time	/jointset/ground_pelvis/pelvis_tilt/value	/jointset/ground_pelvis/pelvis_list/value	/jointset/ground_pelvis/pelvis_rotation/value	/jointset/ground_pelvis/pelvis_tx/value	/jointset/ground_pelvis/pelvis_ty/value	/jointset/ground_pelvis/pelvis_tz/value	/jointset/hip_r/hip_flexion_r/value	/jointset/hip_r/hip_adduction_r/value	/jointset/hip_r/hip_rotation_r/value	/jointset/walker_knee_r/knee_angle_r/value	/jointset/patellofemoral_r/knee_angle_r_beta/value	/jointset/ankle_r/ankle_angle_r/value	/jointset/subtalar_r/subtalar_angle_r/value	/jointset/mtp_r/mtp_angle_r/value	/jointset/hip_l/hip_flexion_l/value	/jointset/hip_l/hip_adduction_l/value	/jointset/hip_l/hip_rotation_l/value	/jointset/walker_knee_l/knee_angle_l/value	/jointset/patellofemoral_l/knee_angle_l_beta/value	/jointset/ankle_l/ankle_angle_l/value	/jointset/subtalar_l/subtalar_angle_l/value	/jointset/mtp_l/mtp_angle_l/value	/jointset/back/lumbar_extension/value	/jointset/back/lumbar_bending/value	/jointset/back/lumbar_rotation/value	/jointset/acromial_r/arm_flex_r/value	/jointset/acromial_r/arm_add_r/value	/jointset/acromial_r/arm_rot_r/value	/jointset/elbow_r/elbow_flex_r/value	/jointset/radioulnar_r/pro_sup_r/value	/jointset/radius_hand_r/wrist_flex_r/value	/jointset/radius_hand_r/wrist_dev_r/value	/jointset/acromial_l/arm_flex_l/value	/jointset/acromial_l/arm_add_l/value	/jointset/acromial_l/arm_rot_l/value	/jointset/elbow_l/elbow_flex_l/value	/jointset/radioulnar_l/pro_sup_l/value	/jointset/radius_hand_l/wrist_flex_l/value	/jointset/radius_hand_l/wrist_dev_l/value
      0.02500000	      6.39328694	     -0.63210001	     -1.27796143	      0.95690026	      1.10814200	     -0.46026120	     -6.12874303	      1.95343276	     -4.73314711	     18.55326409	      0.32381555	     11.78724903	      0.00000000	      0.00000000	     20.31359715	     -3.99410262	     -2.71645061	     56.42498649	      0.98480179	      2.76934939	      0.00000000	      0.00000000	    -25.00420942	     -1.01763120	      3.20557408	     -1.26039681	    -22.81439300	     -9.40930142	     59.30808267	     54.60887542	      0.00000000	      0.00000000	     -1.89374329	    -12.40573110	      6.09350098	     40.53131911	     57.41185115	      0.00000000	      0.00000000
      0.03333333	      6.59576683	     -0.70969346	     -1.39718104	      0.95661715	      1.10823585	     -0.46007254	     -7.48325565	      2.05643990	     -4.58693698	     17.65410745	      0.30812230	     11.54678303	      0.00000000	      0.00000000	     20.60505937	     -4.23664806	     -3.21927446	     53.89063464	      0.94056901	      2.87648776	      0.00000000	      0.00000000	    -25.28072424	     -1.06060338	      3.49469872	     -0.98885198	    -23.12319886	     -9.37137528	     60.56010231	     54.53682346	      0.00000000	      0.00000000	     -2.11745848	    -12.34801316	      5.94230510	     40.03247159	     57.40295202	      0.00000000	      0.00000000
      0.04166667	      6.45209126	     -0.81214380	     -1.48496829	      0.95635874	      1.10752612	     -0.46003872	     -8.37901973	      2.17693211	     -4.44276248	     16.97998775	      0.29635669	     11.53342199	      0.00000000	      0.00000000	     21.26485234	     -4.44341269	     -3.55415896	     51.32536411	      0.89579659	      2.88626944	      0.00000000	      0.00000000	    -25.15071963	     -1.03725300	      3.71281066	     -0.73653845	    -23.46882381	     -9.20336738	     61.79101242	     54.53444565	      0.00000000	      0.00000000	     -2.42361924	    -12.27689115	      5.78005316	     39.52556990	     57.33985360	      0.00000000	      0.00000000
      0.05000000	      6.17128527	     -1.17573648	     -1.52420554	      0.95606235	      1.10624515	     -0.46010406	     -8.93099242	      2.54462973	     -4.66815092	     16.81823201	      0.29353352	     11.69327314	      0.00000000	      0.00000000	     22.09867625	     -4.95514295	     -3.95433671	     48.87650244	      0.85305589	      3.14055346	      0.00000000	      0.00000000	    -24.86153033	     -0.70228566	      3.90347078	     -0.24914277	    -23.68766890	     -9.20252816	     62.54293874	     54.53708855	      0.00000000	      0.00000000	     -2.86849040	    -12.21500054	      5.79144492	     39.28792155	     57.31634224	      0.00000000	      0.00000000
      0.05833333	      6.69043711	     -1.15054526	     -1.67728121	      0.95591029	      1.10642105	     -0.46010253	    -10.90680324	      2.53341657	     -4.02433679	     15.21672683	      0.26558198	     10.97885383	      0.00000000	      0.00000000	     21.70149318	     -4.99350799	     -4.51518251	     45.71038399	      0.79779670	      2.98305167	      0.00000000	      0.00000000	    -25.52861938	     -0.83105829	      4.21389508	     -0.10947959	    -24.07021499	     -9.07510221	     64.15979448	     54.49065414	      0.00000000	      0.00000000	     -2.84081777	    -12.06961743	      5.61154375	     38.34622447	     57.25336878	      0.00000000	      0.00000000
      0.06666667	      6.89724031	     -1.35316278	     -1.72426761	      0.95578073	      1.10567208	     -0.46023253	    -12.28334172	      2.73618394	     -3.89673845	     14.31346041	      0.24981701	     10.66674161	      0.00000000	      0.00000000	     21.71269927	     -5.25399552	     -5.01915415	     42.75504422	      0.74621629	      3.19406302	      0.00000000	      0.00000000	    -25.82746980	     -0.69013060	      4.46900636	      0.16760560	    -24.33016269	     -9.10045828	     65.26311009	     54.39141639	      0.00000000	      0.00000000	     -3.00902968	    -12.04887272	      5.71801068	     37.87527670	     57.24862122	      0.00000000	      0.00000000
      0.07500000	      6.85364639	     -1.52469396	     -1.76896760	      0.95558402	      1.10434070	     -0.46057578	    -13.31780728	      2.88560159	     -3.71753771	     13.58233709	      0.23705650	     10.59234157	      0.00000000	      0.00000000	     21.96083515	     -5.39757454	     -5.37002797	     39.75731118	      0.69389598	      3.40053510	      0.00000000	      0.00000000	    -25.85932050	     -0.53478847	      4.66647763	      0.46055021	    -24.61646839	     -8.94191805	     66.35547984	     54.35062526	      0.00000000	      0.00000000	     -3.17404874	    -11.92675732	      5.74192722	     37.25656032	     57.20744540	      0.00000000	      0.00000000
      0.08333333	      6.96566727	     -1.67629283	     -1.83355581	      0.95553139	      1.10306832	     -0.46089531	    -14.56615927	      2.99378687	     -3.58084143	     12.76219641	      0.22274235	     10.41945770	      0.00000000	      0.00000000	     21.94522765	     -5.49376273	     -5.78094611	     36.65474152	      0.63974593	      3.57305188	      0.00000000	      0.00000000	    -26.04579220	     -0.41862541	      4.89259395	      0.74702760	    -24.90663828	     -8.86684277	     67.35933033	     54.29071489	      0.00000000	      0.00000000	     -3.33183495	    -11.87949230	      5.87443819	     36.70244722	     57.14461154	      0.00000000	      0.00000000
      0.09166667	      7.02524197	     -1.81351818	     -1.88073013	      0.95552348	      1.10155639	     -0.46139002	    -15.73352144	      3.07122242	     -3.46072033	     12.00687917	      0.20955957	     10.28757561	      0.00000000	      0.00000000	     21.94075664	     -5.51166818	     -6.10778942	     33.54591846	      0.58548673	      3.68020184	      0.00000000	      0.00000000	    -26.17197042	     -0.29256613	      5.08035095	      1.03310521	    -25.17570601	     -8.75373712	     68.32378925	     54.24958975	      0.00000000	      0.00000000	     -3.46314041	    -11.80365679	      6.05465858	     36.09427871	     57.05343469	      0.00000000	      0.00000000
      0.10000000	      6.76401593	     -2.04272976	     -1.90193053	      0.95549882	      1.09933695	     -0.46205174	    -16.42688651	      3.23780391	     -3.30009998	     11.58052695	      0.20211832	     10.40636541	      0.00000000	      0.00000000	     22.31096704	     -5.56033390	     -6.11523049	     30.58175924	      0.53375239	      3.83900053	      0.00000000	      0.00000000	    -25.94187139	     -0.02823948	      5.22892332	      1.30083992	    -25.48674697	     -8.48829888	     69.23378647	     54.27887885	      0.00000000	      0.00000000	     -3.63157789	    -11.66000163	      6.08384199	     35.43233638	     56.99183262	      0.00000000	      0.00000000
      0.10833333	      6.91405865	     -2.06480871	     -1.89063596	      0.95564745	      1.09773599	     -0.46264989	    -17.70890525	      3.19700823	     -3.25558834	     10.78509522	      0.18823542	     10.17929423	      0.00000000	      0.00000000	     22.09598346	     -5.38109682	     -6.35352453	     27.49181134	      0.47982263	      3.67522820	      0.00000000	      0.00000000	    -26.16507662	     -0.01075674	      5.27984133	      1.61317627	    -25.62553139	     -8.39286619	     70.07595292	     54.30145235	      0.00000000	      0.00000000	     -3.63311839	    -11.62532203	      6.33700450	     34.57853491	     56.94207234	      0.00000000	      0.00000000
      0.11666667	      6.61290007	     -2.20817019	     -1.92715019	      0.95579434	      1.09511382	     -0.46346862	    -18.29460820	      3.24830816	     -3.13242200	     10.50830503	      0.18340452	     10.28434577	      0.00000000	      0.00000000	     22.45798457	     -5.30229918	     -6.21916698	     24.82664057	      0.43330662	      4.03830836	      0.00000000	      0.00000000	    -25.88941420	      0.16938699	      5.42224057	      1.79338210	    -25.91044184	     -8.12755017	     70.88985946	     54.35551010	      0.00000000	      0.00000000	     -3.77459952	    -11.48302859	      6.43061689	     33.97809675	     56.90791608	      0.00000000	      0.00000000
      0.12500000	      6.28277415	     -2.43520848	     -1.90771935	      0.95617248	      1.09221110	     -0.46417988	    -18.80335496	      3.41394880	     -3.33648068	     10.38588329	      0.18126786	     10.49497258	      0.00000000	      0.00000000	     23.01403662	     -5.40139608	     -6.54061771	     22.81313298	      0.39816428	      4.52023421	      0.00000000	      0.00000000	    -25.53550641	      0.44090642	      5.39219265	      2.11095341	    -25.97486139	     -8.02366875	     71.56481841	     54.38959614	      0.00000000	      0.00000000	     -4.07069133	    -11.41620804	      6.51734042	     33.49374054	     56.88796378	      0.00000000	      0.00000000
      0.13333333	      6.57759436	     -2.04378869	     -1.88487641	      0.95650499	      1.09052284	     -0.46512643	    -20.18532802	      2.91958768	     -3.30779840	      9.67934941	      0.16893652	     10.18466768	      0.00000000	      0.00000000	     22.38479988	     -4.64024409	     -6.00729183	     19.80365016	      0.34563890	      4.18312908	      0.00000000	      0.00000000	    -25.89124577	      0.05204584	      5.39378446	      2.21309270	    -26.10672702	     -7.88106309	     72.34547376	     54.53670427	      0.00000000	      0.00000000	     -3.83623572	    -11.43814701	      7.04066741	     32.42522451	     56.91573804	      0.00000000	      0.00000000
      0.14166667	      6.34994497	     -2.00358757	     -1.91062658	      0.95700712	      1.08761853	     -0.46601909	    -20.78120736	      2.78505757	     -3.31920374	      9.58175062	      0.16723310	     10.37838359	      0.00000000	      0.00000000	     22.66081193	     -4.39628285	     -5.73906644	     17.92030824	      0.31276838	      4.44744886	      0.00000000	      0.00000000	    -25.62805636	      0.04719479	      5.40755536	      2.35228545	    -26.23403743	     -7.65322501	     73.02711116	     54.64281902	      0.00000000	      0.00000000	     -3.95020461	    -11.36292844	      7.20216014	     31.75087574	     56.90043907	      0.00000000	      0.00000000
      0.15000000	      6.32532822	     -1.84825428	     -1.93766355	      0.95768031	      1.08502284	     -0.46696747	    -21.59120022	      2.52339194	     -3.48332901	      9.47217754	      0.16532069	     10.41492740	      0.00000000	      0.00000000	     22.66560774	     -4.03810662	     -5.55342315	     16.18846305	      0.28254198	      4.32521264	      0.00000000	      0.00000000	    -25.56717433	     -0.09319046	      5.38267938	      2.48144700	    -26.27178931	     -7.48671051	     73.58274621	     54.79596210	      0.00000000	      0.00000000	     -4.02052040	    -11.34220432	      7.47458261	     31.04987786	     56.89485455	      0.00000000	      0.00000000
